<svg version="1.1" id="Layer_1" xmlns="http://www.w3.org/2000/svg" xmlns:xlink="http://www.w3.org/1999/xlink" x="0px" y="0px"
	 width="100%" viewBox="0 0 1024 576" enable-background="new 0 0 1024 576" xml:space="preserve">
<path fill="#000000" opacity="1.000000" stroke="none" 
	d="
M700.225220,349.072205 
	C695.294556,366.609650 686.990784,382.095032 678.024170,397.379639 
	C670.034729,410.998627 660.798096,423.524597 649.326843,434.300659 
	C630.440552,452.042297 608.415039,464.275330 583.525635,471.650574 
	C563.866089,477.476135 543.837402,479.887634 523.435913,480.197815 
	C492.420685,480.669373 463.077667,473.523254 434.666290,461.504242 
	C405.792633,449.289642 381.672302,431.002808 362.604218,406.157745 
	C352.321564,392.759796 344.276703,378.100311 337.991364,362.354156 
	C328.846161,339.443420 322.163361,316.218628 322.555359,291.175262 
	C323.161194,252.470734 335.191376,217.882828 359.085022,187.641525 
	C391.625610,146.456238 434.482544,122.598801 486.339539,116.112587 
	C536.529541,109.834877 582.866638,121.918579 625.067749,149.660736 
	C652.174500,167.480133 673.743225,190.553970 688.689331,219.424576 
	C704.957520,250.849045 711.670593,284.073456 706.600769,319.455963 
	C705.178528,329.381653 703.032349,339.069214 700.225220,349.072205 
M646.510681,395.026611 
	C650.704956,390.697937 654.216675,385.822266 657.528442,380.825317 
	C678.976868,348.462585 686.790283,313.010193 681.013245,274.660339 
	C676.525452,244.869019 663.169006,219.226074 642.359375,197.778366 
	C595.135620,149.106720 537.916138,130.447098 471.309296,144.138733 
	C433.112244,151.990463 402.558777,173.342987 378.728271,203.853455 
	C359.133942,228.940323 348.043030,257.723083 347.491180,289.714020 
	C346.820007,328.622223 361.313599,362.310791 387.885986,390.018829 
	C432.423553,436.459869 487.381470,455.330139 551.156067,446.425385 
	C588.765259,441.174011 620.561829,423.986084 646.510681,395.026611 
z"/>
<path fill="#000000" opacity="1.000000" stroke="none" 
	d="
M461.912323,250.671921 
	C463.204041,245.295151 466.387543,242.366440 471.397034,241.944702 
	C476.409576,241.522690 479.891235,244.187042 482.316071,248.437119 
	C493.042114,267.236664 503.783478,286.027496 514.537476,304.811066 
	C515.351318,306.232635 516.307190,307.572906 517.722961,309.765289 
	C522.488098,301.497101 526.953247,293.830505 531.340027,286.119293 
	C538.337341,273.819092 545.213989,261.449707 552.278809,249.188629 
	C555.776245,243.118835 560.268066,240.870270 565.221741,242.234177 
	C570.735229,243.752228 573.310486,247.698868 573.319092,254.966614 
	C573.349976,280.949738 573.348572,306.932922 573.329590,332.916107 
	C573.323792,340.875031 568.996765,346.092529 562.320007,346.337250 
	C555.241211,346.596710 550.222290,341.726715 549.995056,333.566498 
	C549.703308,323.089447 549.924133,312.598114 549.924133,301.834045 
	C548.041382,302.233795 547.838806,303.692108 547.278687,304.685516 
	C541.064026,315.706604 534.818787,326.712250 528.775330,337.827271 
	C526.249878,342.471985 523.313965,346.327576 517.488708,346.245697 
	C511.893463,346.167084 509.056763,342.331116 506.611664,337.917358 
	C500.399506,326.703430 494.078552,315.549713 487.786652,304.380066 
	C487.240723,303.410950 486.955597,302.204529 484.989319,301.504150 
	C484.989319,304.328247 485.040588,306.903168 484.979950,309.475403 
	C484.776001,318.128723 484.636353,326.785492 484.268311,335.432312 
	C484.009094,341.522797 480.072388,345.731812 474.538666,346.297821 
	C468.830627,346.881683 463.834900,343.314514 462.328186,337.484222 
	C461.998749,336.209503 461.821014,334.857910 461.820129,333.541565 
	C461.801605,306.060944 461.818634,278.580292 461.912323,250.671921 
z"/>
<path fill="#000000" opacity="1.000000" stroke="none" 
	d="
M649.427917,341.511749 
	C648.963074,340.772522 648.568298,340.370605 648.476318,339.908386 
	C646.479858,329.878174 639.700806,328.154510 630.786560,329.124786 
	C625.356262,329.715851 619.804382,329.348083 614.314575,329.174713 
	C611.196594,329.076233 609.285095,330.183075 608.306030,333.180328 
	C607.584595,335.389038 606.669373,337.548676 605.672791,339.650635 
	C602.818298,345.670837 596.728943,348.029938 590.664368,345.552521 
	C584.995483,343.236786 582.323364,337.835144 584.659973,331.617523 
	C592.795410,309.968872 601.203430,288.422485 609.550049,266.853546 
	C611.711792,261.267303 614.035889,255.744049 616.270203,250.185745 
	C618.401611,244.883713 622.158875,241.762695 628.009399,241.739685 
	C633.911865,241.716476 637.014343,245.503647 638.918823,250.470154 
	C646.067627,269.112305 653.165955,287.774017 660.210205,306.455902 
	C663.320679,314.705109 666.426575,322.963440 669.213745,331.324615 
	C671.177124,337.214752 669.071838,342.446167 664.291382,345.068237 
	C659.311829,347.799500 653.793396,346.576538 649.427917,341.511749 
M631.936279,296.490906 
	C630.377319,293.341492 629.561768,289.792755 626.883240,286.282318 
	C624.087097,293.222351 621.605225,299.382355 618.812073,306.315033 
	C624.923889,306.771118 629.992126,306.999847 635.523010,306.209839 
	C634.270020,302.750427 633.262390,299.968323 631.936279,296.490906 
z"/>
<path fill="#000000" opacity="1.000000" stroke="none" 
	d="
M394.572083,301.541077 
	C385.957855,287.446899 377.491943,273.707184 369.084351,259.931854 
	C364.808441,252.925964 365.477509,247.393860 370.899475,243.780197 
	C376.692200,239.919418 383.906006,241.639862 388.105347,248.186340 
	C393.584686,256.728241 398.834259,265.417542 404.185883,274.041443 
	C405.386017,275.975433 406.599396,277.901184 408.136780,280.358368 
	C414.145294,270.419678 419.767609,261.042053 425.482086,251.720947 
	C426.953400,249.320999 428.459625,246.852402 430.396576,244.846863 
	C434.342255,240.761551 440.763184,240.674911 445.436584,244.297287 
	C449.716766,247.614868 450.871429,253.161438 447.979645,258.081390 
	C439.633820,272.280548 431.213989,286.436920 422.711365,300.542603 
	C420.835938,303.653900 419.955872,306.815369 420.029388,310.449493 
	C420.184174,318.102173 420.166809,325.761383 420.055695,333.415527 
	C419.942841,341.186188 415.685730,346.066193 409.057220,346.317535 
	C402.202026,346.577484 397.316986,341.833862 396.984253,333.903473 
	C396.649567,325.927673 396.790070,317.929016 396.847107,309.941254 
	C396.867981,307.020294 396.373627,304.326385 394.572083,301.541077 
z"/>
</svg>